<?xml version="1.0" encoding="UTF-8"?>
<svg id="Layer_1" data-name="Layer 1" xmlns="http://www.w3.org/2000/svg" viewBox="0 0 8192 7027.17">
  <defs>
    <style>
      .cls-1 {
        fill: #0e192b;
        stroke-width: 0px;
      }

      .cls-1, .cls-2 {
        isolation: isolate;
        opacity: .69;
      }

      .cls-2 {
        fill: none;
        stroke: #fff;
        stroke-miterlimit: 2.16;
        stroke-width: 9.17px;
      }

      .cls-3 {
        opacity: .71;
      }

      .cls-4 {
        opacity: .6;
      }

      .cls-5 {
        opacity: .42;
      }

      .cls-6 {
        opacity: .45;
      }
    </style>
  </defs>
  <g id="Layer_2" data-name="Layer 2" class="cls-5">
    <g class="cls-3">
      <path id="Path_6-2" data-name="Path 6-2" class="cls-2" d="M-1211.78-1447.37c46.83,111.87-152.55-232.54,2849.43-530.79C4639.63-2276.4,3839.1-747.95,5920.52-2.36c2081.43,745.58,2521.69-1602.97,3802.51-186.38,1280.83,1416.59,4434.74,2431.22,1120.77,3019.56-3313.96,588.34-3673.96,2737.23-7605.09,745.52C-692.42,1584.63-683.89,5552.07-1964.78,4694.68c-1280.89-857.39-2041.33-2684.03-440.26-4510.73C-803.98-1642.75-1258.61-1559.24-1211.78-1447.37Z"/>
    </g>
  </g>
  <g id="Layer_3" data-name="Layer 3" class="cls-4">
    <g class="cls-6">
      <path id="Path_6-2-2" data-name="Path 6-2" class="cls-1" d="M-1051.16-1409.3c46.83,111.87-313.17-270.61,2688.81-568.85C4639.63-2276.4,3839.1-747.95,5920.52-2.36c2081.43,745.58,2521.69-1602.97,3802.51-186.38,1280.83,1416.59,4434.74,2431.22,1120.77,3019.56-3313.96,588.34-3673.96,2737.23-7605.09,745.52C-692.42,1584.63-683.89,5552.07-1964.78,4694.68c-1280.89-857.39-2092.94-2725.81-440.26-4510.73,1193.26-1288.74,1307.05-1705.12,1353.88-1593.26Z"/>
    </g>
  </g>
</svg>