<?xml version="1.0" encoding="UTF-8"?>
<svg id="_13" data-name="13" xmlns="http://www.w3.org/2000/svg" xmlns:xlink="http://www.w3.org/1999/xlink" viewBox="0 0 681 681">
  <defs>
    <style>
      .cls-1, .cls-2, .cls-3 {
        stroke-width: 0px;
      }

      .cls-1, .cls-3 {
        fill: #fff;
      }

      .cls-2 {
        fill: url(#linear-gradient);
      }

      .cls-2, .cls-3 {
        fill-rule: evenodd;
      }
    </style>
    <linearGradient id="linear-gradient" x1="522.97" y1="505.81" x2="150.19" y2="168.09" gradientUnits="userSpaceOnUse">
      <stop offset="0" stop-color="#fec053"/>
      <stop offset=".33" stop-color="#f2203e"/>
      <stop offset=".65" stop-color="#b729a8"/>
      <stop offset="1" stop-color="#5342d6"/>
    </linearGradient>
  </defs>
  <rect class="cls-1" width="681" height="681" rx="101.4" ry="101.4"/>
  <g>
    <path class="cls-2" d="M158.96,68.11h363.08c49.94,0,90.85,40.9,90.85,90.85v363.09c0,49.94-40.91,90.85-90.85,90.85H158.96c-49.95,0-90.85-40.91-90.85-90.85V158.96c0-49.94,40.9-90.85,90.85-90.85h0Z"/>
    <path class="cls-3" d="M467.27,340.5c0-70.03-56.74-126.77-126.77-126.77s-126.77,56.74-126.77,126.77,56.74,126.77,126.77,126.77,126.77-56.74,126.77-126.77h0ZM464.87,196.5c-11.32,0-20.4,9.17-20.4,20.4s9.08,20.4,20.4,20.4,20.4-9.09,20.4-20.4-9.17-20.4-20.4-20.4h0ZM236.88,167.19h207.25c38.4,0,69.68,31.37,69.68,69.68v207.25c0,38.4-31.28,69.69-69.68,69.69h-207.25c-38.31,0-69.69-31.29-69.69-69.69v-207.25c0-38.31,31.37-69.68,69.69-69.68h0ZM444.13,143.96h-207.25c-51.09,0-92.91,41.83-92.91,92.91v207.25c0,51.17,41.83,92.92,92.91,92.92h207.25c51.17,0,92.91-41.74,92.91-92.92v-207.25c0-51.08-41.74-92.91-92.91-92.91h0ZM240.04,340.5c0-55.46,45-100.46,100.46-100.46s100.46,45,100.46,100.46-45,100.45-100.46,100.45-100.46-44.99-100.46-100.45h0Z"/>
  </g>
</svg>