<svg id="Right_arrow" data-name="Right arrow" xmlns="http://www.w3.org/2000/svg" width="59" height="59" viewBox="0 0 59 59">
  <g id="Polygon_8" data-name="Polygon 8" transform="translate(49.589 12.421) rotate(90)" fill="#fff">
    <path d="M 25.2731990814209 26.50000190734863 L 8.726810455322266 26.50000190734863 C 7.419099807739258 26.50000190734863 6.774189949035645 25.62082099914551 6.557620048522949 25.24283218383789 C 6.341050148010254 24.86484146118164 5.908730030059814 23.86386108398438 6.570069789886475 22.7357006072998 L 14.84325981140137 8.622601509094238 C 15.49705028533936 7.507311344146729 16.5693302154541 7.386901378631592 17 7.386901378631592 C 17.4306697845459 7.386901378631592 18.50295066833496 7.507311344146729 19.1567497253418 8.622601509094238 L 27.42992973327637 22.7357006072998 C 28.09127044677734 23.86387062072754 27.65895080566406 24.86484146118164 27.44238090515137 25.24284172058105 C 27.22580909729004 25.62083053588867 26.58090972900391 26.50000190734863 25.2731990814209 26.50000190734863 Z" stroke="none"/>
    <path d="M 17 9.88690185546875 L 8.726800918579102 23.99999237060547 C 8.726795196533203 23.99999618530273 8.726789474487305 24 8.726810455322266 24 L 25.27318954467773 24 L 17.00000953674316 9.886911392211914 C 17.00000762939453 9.886907577514648 17.00000953674316 9.88690185546875 17 9.88690185546875 M 17 4.88690185546875 C 18.673828125 4.88690185546875 20.34765625 5.710700988769531 21.31348991394043 7.358301162719727 L 29.58667945861816 21.47140121459961 C 31.54063987731934 24.80462265014648 29.13690948486328 29.00000190734863 25.27318954467773 29.00000190734863 L 8.726810455322266 29.00000190734863 C 4.863079071044922 29.00000190734863 2.459360122680664 24.80462265014648 4.413309097290039 21.47140121459961 L 12.68651008605957 7.358301162719727 C 13.65234565734863 5.710700988769531 15.326171875 4.88690185546875 17 4.88690185546875 Z" stroke="none" fill="#fff"/>
  </g>
  <g id="Ellipse_8" data-name="Ellipse 8" fill="none" stroke="#fff" stroke-width="2">
    <circle cx="29.5" cy="29.5" r="29.5" stroke="none"/>
    <circle cx="29.5" cy="29.5" r="28.5" fill="none"/>
  </g>
</svg>
