<?xml version="1.0" encoding="UTF-8"?>
<svg id="_13" data-name="13" xmlns="http://www.w3.org/2000/svg" viewBox="0 0 681 681">
  <defs>
    <style>
      .cls-1 {
        fill: #ed3024;
      }

      .cls-1, .cls-2 {
        stroke-width: 0px;
      }

      .cls-2 {
        fill: #fff;
      }
    </style>
  </defs>
  <rect class="cls-2" width="681" height="681" rx="101.4" ry="101.4"/>
  <g>
    <path class="cls-1" d="M607.16,205.66c-6.4-24.1-25.26-43.09-49.21-49.53-43.41-11.71-217.46-11.71-217.46-11.71,0,0-174.05,0-217.46,11.71-23.95,6.44-42.81,25.43-49.21,49.53-11.63,43.69-11.63,134.84-11.63,134.84,0,0,0,91.15,11.63,134.84,6.4,24.1,25.26,43.08,49.21,49.53,43.41,11.71,217.46,11.71,217.46,11.71,0,0,174.05,0,217.46-11.71,23.95-6.44,42.81-25.42,49.21-49.53,11.63-43.69,11.63-134.84,11.63-134.84,0,0,0-91.15-11.63-134.84Z"/>
    <polygon class="cls-2" points="283.58 423.26 283.58 257.74 429.05 340.5 283.58 423.26"/>
  </g>
</svg>