<?xml version="1.0" encoding="UTF-8"?>
<svg id="Layer_1" data-name="Layer 1" xmlns="http://www.w3.org/2000/svg" viewBox="0 0 176.18 178.44">
  <defs>
    <style>
      .cls-1, .cls-2, .cls-3, .cls-4, .cls-5, .cls-6 {
        stroke-linejoin: round;
      }

      .cls-1, .cls-2, .cls-3, .cls-4, .cls-6 {
        stroke-linecap: round;
      }

      .cls-1, .cls-2, .cls-3, .cls-5, .cls-6 {
        stroke-width: 4.52px;
      }

      .cls-1, .cls-2, .cls-4 {
        isolation: isolate;
        opacity: .98;
      }

      .cls-1, .cls-3, .cls-5 {
        fill: none;
      }

      .cls-1, .cls-4 {
        stroke: #0a0e34;
      }

      .cls-7 {
        stroke-miterlimit: 10;
        stroke-width: 3.13px;
      }

      .cls-7, .cls-2, .cls-3, .cls-5, .cls-6 {
        stroke: #fff;
      }

      .cls-7, .cls-4, .cls-6 {
        fill: #0a0e34;
      }

      .cls-2 {
        fill: #fff;
      }

      .cls-4 {
        stroke-width: 4.52px;
      }

      .cls-5 {
        stroke-dasharray: 0 0 0 36.17;
        stroke-linecap: square;
      }
    </style>
  </defs>
  <g id="Logo">
    <g id="Group_2" data-name="Group 2">
      <ellipse id="Ellipse_2" data-name="Ellipse 2" class="cls-7" cx="88.09" cy="89.22" rx="86.53" ry="87.66"/>
      <ellipse id="Ellipse_1" data-name="Ellipse 1" class="cls-6" cx="87.98" cy="87.57" rx="70.09" ry="71.02"/>
      <ellipse id="Ellipse_3" data-name="Ellipse 3" class="cls-5" cx="88.2" cy="88.68" rx="78.8" ry="79.84"/>
      <line id="Line_1" data-name="Line 1" class="cls-3" x1="70.23" y1="71.14" x2="106.65" y2="105.7"/>
      <path id="Path_8" data-name="Path 8" class="cls-2" d="M31.47,76.16l73.24,69.51,9.22-9.99-4.95-15.78,16.79,4.43-5.31-16.12,16.23,4.32,9.22-9.99L69.44,29.98l-9.22,9.99,6.96,17.25-16.95-5,5.97,17.59-17.5-5.11-9.02,9.76s1.79,1.7,1.79,1.7Z"/>
      <path id="Path_9" data-name="Path 9" class="cls-1" d="M61.44,70.87l8.77.25-1.29-8.36"/>
      <rect id="Rectangle_189" data-name="Rectangle 189" class="cls-4" x="72.25" y="74.02" width="5.56" height="5.63" transform="translate(-4.86 5.07) rotate(-3.75)"/>
      <path id="Path_10" data-name="Path 10" class="cls-1" d="M116.32,105.97h-8.77l1.56,8.34"/>
      <rect id="Rectangle_190" data-name="Rectangle 190" class="cls-4" x="81.6" y="81.5" width="13.9" height="14.08" transform="translate(-5.6 5.98) rotate(-3.75)"/>
      <rect id="Rectangle_191" data-name="Rectangle 191" class="cls-4" x="99.04" y="97.74" width="5.56" height="5.63" transform="translate(-6.36 6.87) rotate(-3.75)"/>
    </g>
  </g>
</svg>