<?xml version="1.0" encoding="UTF-8"?>
<svg id="Layer_1" data-name="Layer 1" xmlns="http://www.w3.org/2000/svg" viewBox="0 0 76.38 77.25">
  <defs>
    <style>
      .cls-1 {
        fill: #fff;
      }

      .cls-1, .cls-2, .cls-3 {
        isolation: isolate;
        opacity: .98;
      }

      .cls-1, .cls-2, .cls-3, .cls-4, .cls-5, .cls-6 {
        stroke-linejoin: round;
      }

      .cls-1, .cls-2, .cls-3, .cls-4, .cls-6 {
        stroke-linecap: round;
      }

      .cls-1, .cls-2, .cls-4, .cls-5 {
        stroke-width: 1.91px;
      }

      .cls-1, .cls-4, .cls-5 {
        stroke: #fff;
      }

      .cls-2, .cls-3, .cls-6 {
        stroke: #0a0e34;
      }

      .cls-2, .cls-4, .cls-5 {
        fill: none;
      }

      .cls-3 {
        stroke-width: 1.91px;
      }

      .cls-3, .cls-6 {
        fill: #0a0e34;
      }

      .cls-5 {
        stroke-dasharray: 0 15.31;
        stroke-linecap: square;
      }

      .cls-6 {
        stroke-width: 1.99px;
      }
    </style>
  </defs>
  <ellipse class="cls-6" cx="38.19" cy="38.63" rx="37.19" ry="37.63"/>
  <g id="Logo">
    <g id="Group_2" data-name="Group 2">
      <ellipse id="Ellipse_1" data-name="Ellipse 1" class="cls-4" cx="38.2" cy="37.87" rx="29.67" ry="30.06"/>
      <ellipse id="Ellipse_2" data-name="Ellipse 2" class="cls-4" cx="38.25" cy="38.57" rx="36.62" ry="37.1"/>
      <ellipse id="Ellipse_3" data-name="Ellipse 3" class="cls-5" cx="38.3" cy="38.34" rx="33.35" ry="33.79"/>
      <line id="Line_1" data-name="Line 1" class="cls-4" x1="30.69" y1="30.91" x2="46.11" y2="45.54"/>
      <path id="Path_8" data-name="Path 8" class="cls-1" d="M14.29,33.04l31,29.41,3.91-4.23-2.1-6.68,7.11,1.88-2.25-6.82,6.87,1.83,3.91-4.23L30.36,13.49l-3.91,4.23,2.95,7.3-7.18-2.12,2.53,7.45-7.41-2.16-3.82,4.13.76.72Z"/>
      <path id="Path_9" data-name="Path 9" class="cls-2" d="M26.98,30.8l3.72.11-.54-3.54"/>
      <rect id="Rectangle_189" data-name="Rectangle 189" class="cls-3" x="31.55" y="32.13" width="2.35" height="2.39" transform="translate(-2.11 2.21) rotate(-3.75)"/>
      <path id="Path_10" data-name="Path 10" class="cls-2" d="M50.2,45.66h-3.72s.66,3.53.66,3.53"/>
      <rect id="Rectangle_190" data-name="Rectangle 190" class="cls-3" x="35.5" y="35.29" width="5.88" height="5.96" transform="translate(-2.42 2.6) rotate(-3.75)"/>
      <rect id="Rectangle_191" data-name="Rectangle 191" class="cls-3" x="42.88" y="42.18" width="2.35" height="2.39" transform="translate(-2.74 2.98) rotate(-3.75)"/>
    </g>
  </g>
</svg>